<svg version="1.1" xmlns="http://www.w3.org/2000/svg" style="display: block;" viewBox="0 0 2048 2048" width="1024" height="1024" preserveAspectRatio="none">
<defs>
	<linearGradient id="Gradient1" gradientUnits="userSpaceOnUse" x1="1012.29" y1="1311.64" x2="993.08" y2="1331.07">
		<stop class="stop0" offset="0" stop-opacity="1" stop-color="rgb(134,173,134)"/>
		<stop class="stop1" offset="1" stop-opacity="1" stop-color="rgb(176,207,176)"/>
	</linearGradient>
	<linearGradient id="Gradient2" gradientUnits="userSpaceOnUse" x1="1398.95" y1="810.354" x2="1352.73" y2="825.269">
		<stop class="stop0" offset="0" stop-opacity="1" stop-color="rgb(139,137,137)"/>
		<stop class="stop1" offset="1" stop-opacity="1" stop-color="rgb(211,210,209)"/>
	</linearGradient>
	<linearGradient id="Gradient3" gradientUnits="userSpaceOnUse" x1="1487.53" y1="870.815" x2="1480.15" y2="889.669">
		<stop class="stop0" offset="0" stop-opacity="1" stop-color="rgb(28,27,28)"/>
		<stop class="stop1" offset="1" stop-opacity="1" stop-color="rgb(58,58,57)"/>
	</linearGradient>
	<linearGradient id="Gradient4" gradientUnits="userSpaceOnUse" x1="1311.51" y1="1101.84" x2="1446.48" y2="1197.76">
		<stop class="stop0" offset="0" stop-opacity="1" stop-color="rgb(36,41,39)"/>
		<stop class="stop1" offset="1" stop-opacity="1" stop-color="rgb(46,41,45)"/>
	</linearGradient>
	<linearGradient id="Gradient5" gradientUnits="userSpaceOnUse" x1="1469.71" y1="1141.83" x2="1518.25" y2="1120.29">
		<stop class="stop0" offset="0" stop-opacity="1" stop-color="rgb(80,80,80)"/>
		<stop class="stop1" offset="1" stop-opacity="1" stop-color="rgb(109,109,110)"/>
	</linearGradient>
	<linearGradient id="Gradient6" gradientUnits="userSpaceOnUse" x1="1379.51" y1="1272.64" x2="1496.09" y2="1116.21">
		<stop class="stop0" offset="0" stop-opacity="1" stop-color="rgb(12,12,13)"/>
		<stop class="stop1" offset="1" stop-opacity="1" stop-color="rgb(72,72,73)"/>
	</linearGradient>
	<linearGradient id="Gradient7" gradientUnits="userSpaceOnUse" x1="1334.78" y1="1159.5" x2="1515.67" y2="1160.31">
		<stop class="stop0" offset="0" stop-opacity="1" stop-color="rgb(37,37,37)"/>
		<stop class="stop1" offset="1" stop-opacity="1" stop-color="rgb(84,83,85)"/>
	</linearGradient>
	<linearGradient id="Gradient8" gradientUnits="userSpaceOnUse" x1="786.586" y1="1304.76" x2="795.579" y2="1308.44">
		<stop class="stop0" offset="0" stop-opacity="1" stop-color="rgb(67,67,69)"/>
		<stop class="stop1" offset="1" stop-opacity="1" stop-color="rgb(95,95,96)"/>
	</linearGradient>
	<linearGradient id="Gradient9" gradientUnits="userSpaceOnUse" x1="888.115" y1="1749.73" x2="1031.92" y2="1413.46">
		<stop class="stop0" offset="0" stop-opacity="1" stop-color="rgb(75,75,76)"/>
		<stop class="stop1" offset="1" stop-opacity="1" stop-color="rgb(104,103,104)"/>
	</linearGradient>
	<linearGradient id="Gradient10" gradientUnits="userSpaceOnUse" x1="1047.14" y1="1943.99" x2="430.976" y2="1446.64">
		<stop class="stop0" offset="0" stop-opacity="1" stop-color="rgb(39,39,39)"/>
		<stop class="stop1" offset="1" stop-opacity="1" stop-color="rgb(74,74,75)"/>
	</linearGradient>
	<linearGradient id="Gradient11" gradientUnits="userSpaceOnUse" x1="1558.71" y1="345.717" x2="1578.42" y2="274.307">
		<stop class="stop0" offset="0" stop-opacity="1" stop-color="rgb(153,74,22)"/>
		<stop class="stop1" offset="1" stop-opacity="1" stop-color="rgb(226,112,25)"/>
	</linearGradient>
	<linearGradient id="Gradient12" gradientUnits="userSpaceOnUse" x1="1333.89" y1="423.436" x2="1321.24" y2="440.987">
		<stop class="stop0" offset="0" stop-opacity="1" stop-color="rgb(18,9,6)"/>
		<stop class="stop1" offset="1" stop-opacity="1" stop-color="rgb(52,57,60)"/>
	</linearGradient>
	<linearGradient id="Gradient13" gradientUnits="userSpaceOnUse" x1="1363.23" y1="560.926" x2="1356.34" y2="598.397">
		<stop class="stop0" offset="0" stop-opacity="1" stop-color="rgb(206,102,17)"/>
		<stop class="stop1" offset="1" stop-opacity="1" stop-color="rgb(152,65,8)"/>
	</linearGradient>
</defs>
<path transform="translate(0,0)" fill="rgb(228,127,32)" d="M 1267.42 568.104 C 1219.62 528.903 1206.68 461.131 1236.68 407.078 C 1266.68 353.024 1331.03 328.149 1389.59 347.974 C 1432.76 362.592 1464.9 399.078 1473.96 443.755 C 1481.03 478.638 1473.25 514.889 1452.49 543.799 C 1431.86 572.52 1400.27 591.426 1365.22 596.03 C 1330.16 600.634 1294.76 590.526 1267.42 568.104 z"/>
<path transform="translate(0,0)" fill="url(#Gradient13)" d="M 1439.95 552.105 C 1435.06 558.6 1420.26 566.914 1419.35 573.8 C 1428.77 573.319 1445.28 551.612 1450.55 544.291 L 1451.07 543.567 L 1452.49 543.799 C 1431.86 572.52 1400.27 591.426 1365.22 596.03 C 1330.16 600.634 1294.76 590.526 1267.42 568.104 C 1271.95 568.931 1283.34 577.876 1289.09 580.24 C 1330.96 597.452 1374.68 597.61 1413.66 572.883 C 1422.86 567.044 1430.68 557.379 1439.95 552.105 z"/>
<path transform="translate(0,0)" fill="rgb(242,140,39)" d="M 1456.83 524.837 C 1457.69 519.469 1464.1 506.509 1465.87 499.774 C 1476.12 460.693 1470.37 437.999 1451.75 403.384 C 1450.51 401.071 1450.42 401.132 1450.35 398.37 C 1461.97 411.11 1459.07 412.76 1466.53 426.47 C 1471.44 435.496 1469.83 440.662 1472.86 445.378 L 1473.96 443.755 C 1481.03 478.638 1473.25 514.889 1452.49 543.799 L 1451.07 543.567 L 1450.55 544.291 C 1445.28 551.612 1428.77 573.319 1419.35 573.8 C 1420.26 566.914 1435.06 558.6 1439.95 552.105 C 1445.32 546.316 1455.31 532.412 1456.83 524.837 z"/>
<path transform="translate(0,0)" fill="rgb(250,168,72)" d="M 1456.83 524.837 C 1456.2 525.015 1455.56 525.192 1454.93 525.37 C 1455.49 519.693 1460.12 511.921 1461.94 506.222 C 1478.63 454.062 1458.33 395.306 1413.43 364.018 C 1406.81 359.402 1393.65 354.431 1389.11 350.239 L 1389.59 347.974 C 1432.76 362.592 1464.9 399.078 1473.96 443.755 L 1472.86 445.378 C 1469.83 440.662 1471.44 435.496 1466.53 426.47 C 1459.07 412.76 1461.97 411.11 1450.35 398.37 C 1450.42 401.132 1450.51 401.071 1451.75 403.384 C 1470.37 437.999 1476.12 460.693 1465.87 499.774 C 1464.1 506.509 1457.69 519.469 1456.83 524.837 z"/>
<path transform="translate(0,0)" fill="rgb(68,68,69)" d="M 1262.82 389.822 C 1302.52 346.954 1368.41 341.554 1414.56 377.384 C 1460.71 413.215 1471.81 478.383 1440.12 527.471 C 1417.02 563.251 1375.72 582.947 1333.38 578.374 C 1291.03 573.8 1254.89 545.74 1239.96 505.852 C 1225.04 465.964 1233.88 421.069 1262.82 389.822 z"/>
<path transform="translate(0,0)" fill="rgb(17,16,15)" d="M 1262.82 389.822 C 1302.52 346.954 1368.41 341.554 1414.56 377.384 C 1460.71 413.215 1471.81 478.383 1440.12 527.471 C 1440.42 524.506 1446.51 510.38 1447.9 506.721 C 1485.77 407.088 1374.13 318.111 1285.18 373.564 C 1280.59 376.422 1266 389.226 1262.82 389.822 z"/>
<path transform="translate(0,0)" fill="rgb(242,140,39)" d="M 1311.48 404.645 C 1337.69 409.459 1364.11 412.26 1390.11 416.768 C 1393.38 417.372 1395.47 417.322 1397.66 419.727 L 1397.86 420.991 C 1396.05 426.769 1394.78 428.412 1391.58 433.349 C 1383.83 431.898 1375.14 431.393 1368.01 429.764 C 1370.3 435.837 1370.85 437.434 1372.02 443.886 C 1379.43 445.081 1387.35 446.216 1394.63 447.776 C 1392.23 454.455 1391.33 456.581 1387.82 462.782 L 1388.19 464.018 C 1384 467.594 1378.35 467.358 1372.93 467.558 L 1372.03 468.251 C 1362.74 475.548 1357.87 484.492 1346.13 486.478 C 1341.41 487.276 1332.49 488.87 1328.3 490.604 C 1334.4 500.328 1361.93 535.578 1361.91 542.509 C 1360.38 545.24 1361.01 544.317 1358.57 546.457 C 1355.14 547.395 1343.16 548.444 1341.08 545.503 C 1327.27 525.985 1311 500.766 1297.05 480.785 C 1294.36 476.922 1300.02 481.598 1295.39 478.293 L 1292.33 482.428 C 1291.81 479.256 1293.4 474.78 1295.48 472.356 C 1303.88 454.051 1321.02 474.983 1342.23 463.906 C 1330.03 454.669 1301.48 464.158 1296.38 446.902 L 1297.3 445.875 C 1300.48 439.659 1301.41 437.65 1306.15 432.45 C 1304.63 430.585 1300.76 427.247 1298.75 425.287 C 1298.06 421.187 1299.95 415.011 1303.97 413.002 C 1306.97 410.474 1309.01 407.68 1311.48 404.645 z"/>
<path transform="translate(0,0)" fill="url(#Gradient12)" d="M 1298.75 425.287 C 1298.06 421.187 1299.95 415.011 1303.97 413.002 C 1303.12 415.818 1302.19 416.858 1303.06 418.947 C 1310.1 421.871 1331.51 424.427 1340.12 425.65 C 1347.85 429.798 1348.5 432.495 1352.23 440.561 C 1342.25 439.366 1314.96 435.302 1306.15 432.45 C 1304.63 430.585 1300.76 427.247 1298.75 425.287 z"/>
<path transform="translate(0,0)" fill="rgb(17,16,15)" d="M 1298.75 425.287 C 1298.06 421.187 1299.95 415.011 1303.97 413.002 C 1303.12 415.818 1302.19 416.858 1303.06 418.947 C 1310.1 421.871 1331.51 424.427 1340.12 425.65 C 1337.25 425.901 1335.5 425.68 1333.43 427.611 L 1334.03 430.601 C 1326.81 429.667 1304.44 427.372 1298.75 425.287 z"/>
<path transform="translate(0,0)" fill="rgb(17,16,15)" d="M 1342.23 463.906 C 1330.03 454.669 1301.48 464.158 1296.38 446.902 L 1297.3 445.875 C 1304.33 449.926 1340.1 454.513 1350.28 455.801 C 1347.51 458.988 1345.7 461.396 1342.23 463.906 z"/>
<path transform="translate(0,0)" fill="rgb(17,16,15)" d="M 1295.48 472.356 C 1297.31 479.611 1333.46 531.373 1339.61 538.625 C 1347.05 539.875 1354.49 541.17 1361.91 542.509 C 1360.38 545.24 1361.01 544.317 1358.57 546.457 C 1355.14 547.395 1343.16 548.444 1341.08 545.503 C 1327.27 525.985 1311 500.766 1297.05 480.785 C 1294.36 476.922 1300.02 481.598 1295.39 478.293 L 1292.33 482.428 C 1291.81 479.256 1293.4 474.78 1295.48 472.356 z"/>
<path transform="translate(0,0)" fill="rgb(17,16,15)" d="M 1369.43 459.332 C 1373.59 460.04 1384.79 462.775 1387.82 462.782 L 1388.19 464.018 C 1384 467.594 1378.35 467.358 1372.93 467.558 L 1372.03 468.251 C 1362.74 475.548 1357.87 484.492 1346.13 486.478 C 1341.41 487.276 1332.49 488.87 1328.3 490.604 C 1326.19 487.463 1324.89 486.871 1325.2 484.008 C 1331.16 481.235 1345.31 485.713 1354.86 479.658 C 1364.46 473.569 1366.23 469.502 1369.43 459.332 z"/>
<path transform="translate(0,0)" fill="rgb(250,168,72)" d="M 1390.11 416.768 C 1393.38 417.372 1395.47 417.322 1397.66 419.727 L 1397.86 420.991 C 1394.89 423.274 1391.29 428.33 1388.62 428.443 C 1388.75 423.665 1391.02 421.655 1390.11 416.768 z"/>
<path transform="translate(0,0)" fill="rgb(242,140,39)" d="M 1458.13 275.429 C 1429.44 218.671 1447.2 149.438 1499.68 113.509 C 1552.16 77.5796 1623.13 86.0596 1665.67 133.341 C 1681.96 151.448 1692.69 173.861 1696.58 197.903 C 1701.99 231.259 1693.86 265.394 1674 292.736 C 1648.02 328.514 1605.29 348.183 1561.21 344.65 C 1517.14 341.116 1478.08 314.889 1458.13 275.429 z"/>
<path transform="translate(0,0)" fill="url(#Gradient11)" d="M 1458.13 275.429 C 1458.48 275.702 1458.82 275.975 1459.17 276.249 C 1497.18 339.145 1579.92 351.799 1639.23 311.732 C 1644.77 307.988 1653.03 298.086 1658.87 295.479 C 1659.12 299.491 1659.24 299.879 1661.47 303.352 L 1662.91 303.989 C 1666.21 299.808 1669.38 294.561 1674 292.736 C 1648.02 328.514 1605.29 348.183 1561.21 344.65 C 1517.14 341.116 1478.08 314.889 1458.13 275.429 z"/>
<path transform="translate(0,0)" fill="rgb(250,168,72)" d="M 1665.67 133.341 C 1681.96 151.448 1692.69 173.861 1696.58 197.903 C 1693.07 201.393 1693.54 202.204 1692.2 207.542 C 1691.52 202.853 1691.8 201.33 1692.83 196.693 L 1692.19 195.807 L 1688.57 197.747 C 1687.09 181.091 1683.21 168.762 1675.41 153.957 C 1672.72 148.84 1665.53 138.665 1665.67 133.341 z"/>
<path transform="translate(0,0)" fill="rgb(248,217,145)" d="M 1688.57 197.747 L 1692.19 195.807 L 1692.83 196.693 C 1691.8 201.33 1691.52 202.853 1692.2 207.542 C 1692.42 219.293 1689.6 232.941 1685.92 244.057 C 1683.64 250.935 1673.12 276.352 1666.96 279.442 C 1667.37 276.124 1675.63 262.995 1677.57 258.82 C 1687.15 238.15 1689.55 219.95 1688.57 197.747 z"/>
<path transform="translate(0,0)" fill="rgb(68,68,69)" d="M 1492.11 132.109 C 1531.75 94.4901 1592.89 91.3629 1636.16 124.741 C 1679.44 158.119 1691.94 218.049 1665.62 265.946 C 1644.57 304.271 1602.95 326.642 1559.37 323.066 C 1515.79 319.489 1478.37 290.633 1463.85 249.388 C 1449.32 208.142 1460.39 162.21 1492.11 132.109 z"/>
<path transform="translate(0,0)" fill="rgb(17,16,15)" d="M 1492.11 132.109 C 1531.75 94.4901 1592.89 91.3629 1636.16 124.741 C 1679.44 158.119 1691.94 218.049 1665.62 265.946 L 1664.93 265.001 C 1669.65 253.367 1673.61 243.727 1675.97 231.278 C 1687.29 171.36 1648.67 115.261 1587.94 106.133 C 1548.2 100.159 1524.68 110.223 1493.07 132.877 L 1492.11 132.109 z"/>
<path transform="translate(0,0)" fill="rgb(250,168,72)" d="M 1539.11 149.963 C 1543.17 147.505 1544.11 145.871 1548.86 147.381 C 1566.52 153.003 1612.86 161.623 1627.34 168.757 C 1628.27 174.698 1622.6 179.612 1618.7 183.603 L 1619.07 184.867 L 1615.43 186.505 C 1614.86 188.898 1614.48 191.048 1614.05 193.457 C 1618.3 195.36 1617.63 194.261 1619.08 197.556 C 1618.26 202.218 1615.61 208.617 1610.22 209.277 C 1606.01 207.706 1596.84 203.764 1593 204.247 C 1590.97 207.481 1591.5 208.953 1590.41 210.817 C 1588.88 213.432 1582.7 218.312 1580.11 220.417 C 1564.62 221.21 1557.96 223.732 1541.81 220.952 C 1546.01 228.401 1574.16 280.167 1573.85 284.464 C 1573.5 284.454 1554.03 279.151 1551.68 278.586 C 1555.74 283.372 1566.77 285.539 1574.06 288.429 C 1571.81 289.723 1567.29 292.545 1564.84 292.315 C 1552.44 291.153 1539.49 280.026 1539.93 267.225 C 1536.9 260.267 1529.09 257.206 1527.61 253.858 C 1530.99 243.037 1514.44 223.281 1514.52 216.197 C 1512.98 217.719 1513.01 221.088 1512.57 223.815 L 1511.98 222.978 C 1512.04 217.37 1515.18 207.229 1520.1 204.403 L 1524.97 201.256 L 1523.72 200.317 C 1522.09 195.108 1522.48 189.046 1522.44 183.47 C 1525.85 176.613 1531.72 172.416 1531.87 168.703 C 1529.5 168.25 1529.48 168.323 1527.38 167.212 L 1526.9 165.073 C 1528.49 161.214 1534.77 149.83 1539.11 149.963 z"/>
<path transform="translate(0,0)" fill="rgb(39,39,39)" d="M 1522.44 183.47 C 1525.85 176.613 1531.72 172.416 1531.87 168.703 C 1529.5 168.25 1529.48 168.323 1527.38 167.212 L 1526.9 165.073 C 1528.49 161.214 1534.77 149.83 1539.11 149.963 C 1537.38 153.415 1535.16 155.928 1532.77 158.952 C 1543.75 161.84 1570.62 166.387 1576.01 175.472 C 1576.79 176.803 1578.37 182.483 1578.86 184.266 C 1564.06 180.21 1548.51 175.671 1533.69 171.967 C 1529.15 177.081 1527.53 178.85 1523.96 184.75 C 1539 189.775 1558.37 193.865 1574.37 198.39 C 1558.85 212.62 1543.06 207.863 1524.97 201.256 L 1523.72 200.317 C 1522.09 195.108 1522.48 189.046 1522.44 183.47 z"/>
<path transform="translate(0,0)" fill="rgb(17,16,15)" d="M 1574.06 288.429 C 1571.81 289.723 1567.29 292.545 1564.84 292.315 C 1552.44 291.153 1539.49 280.026 1539.93 267.225 C 1536.9 260.267 1529.09 257.206 1527.61 253.858 C 1530.99 243.037 1514.44 223.281 1514.52 216.197 C 1512.98 217.719 1513.01 221.088 1512.57 223.815 L 1511.98 222.978 C 1512.04 217.37 1515.18 207.229 1520.1 204.403 C 1519.51 206.196 1518.13 210.276 1518.6 211.804 C 1521.02 219.586 1528.61 235.229 1532.38 241.962 C 1536.62 249.556 1547.45 273.401 1551.68 278.586 C 1555.74 283.372 1566.77 285.539 1574.06 288.429 z"/>
<path transform="translate(0,0)" fill="rgb(68,68,69)" d="M 1598.21 190.091 C 1598.09 183.539 1597.99 181.498 1596.72 174.948 C 1605.94 177.404 1613.74 177.057 1618.7 183.603 L 1619.07 184.867 L 1615.43 186.505 C 1614.86 188.898 1614.48 191.048 1614.05 193.457 C 1608.88 192.121 1603.47 191.14 1598.21 190.091 z"/>
<path transform="translate(0,0)" fill="rgb(242,140,39)" d="M 1333.13 131.593 C 1337.78 141.366 1334.66 147.498 1342.34 161.34 C 1353.47 167.721 1357.2 167.674 1369.96 169.546 C 1344.17 178.855 1339.67 176.346 1333.74 206.352 C 1329.32 201.912 1330.51 189.32 1326.94 184.388 C 1320.3 175.209 1305.69 172.532 1295.4 170.01 C 1302.78 168.86 1311.46 167.545 1318.32 164.508 C 1330.66 159.047 1329.06 142.36 1333.13 131.593 z"/>
<path transform="translate(0,0)" fill="rgb(252,252,252)" d="M 1361.24 734.456 C 1376.3 659.954 1439.26 603.099 1516.14 598.038 C 1545.5 596.106 1579.93 606.708 1599.22 630.106 C 1615.72 644.655 1632.66 678.893 1635.47 701.327 C 1638.37 742.971 1623.51 776.812 1596.75 808.567 C 1593.13 812.864 1584.78 821.262 1580.14 824.443 C 1567.5 836.759 1555.15 843.939 1539.08 851.45 C 1533.97 853.834 1525.58 856.97 1520.87 859.51 C 1517.44 875.624 1505.87 906.693 1500.18 923.097 L 1462.72 1032.46 C 1455.75 1052.43 1444.2 1081.6 1438.82 1101.69 C 1451.61 1097.18 1474.68 1095.41 1488.24 1099.09 C 1512.68 1104.15 1530.27 1125.76 1527.08 1150.99 C 1526.54 1198.27 1452 1231.1 1418.21 1253.61 C 1410.78 1258.56 1393.75 1268.84 1385.79 1272.54 C 1382.41 1275.34 1377.79 1278.67 1375.03 1281.78 C 1411.99 1284.72 1455.53 1307.43 1457.99 1348.92 C 1467.99 1399.43 1413.43 1437.86 1376.43 1461.33 C 1404.64 1480.13 1410.62 1523.69 1398.54 1553.22 C 1381.55 1611.7 1344.11 1627.13 1295.99 1656.11 C 1274.72 1668.92 1251.76 1685.04 1230.16 1697.01 C 1229.08 1697.61 1228 1698.19 1226.92 1698.76 C 1221.99 1702.99 1216.24 1723.81 1213.62 1731.04 C 1199.31 1770.5 1166.31 1802.13 1122.85 1803.88 C 1104.46 1804.8 1088.35 1801.22 1070.73 1796.56 C 1053.45 1808.62 1036.64 1821.83 1019.45 1834.15 C 990.652 1854.88 960.678 1873.94 929.679 1891.21 C 904.843 1904.83 878.56 1916.94 852.414 1927.91 C 821.195 1941.01 784.058 1951.82 755.887 1970.5 C 728.31 1988.77 698.452 2021.42 678.257 2048 L 112.033 2048 C 120.29 2036.64 132.54 2023.39 141.968 2012.62 L 187.935 1959.87 C 248.696 1890.02 308.448 1819.29 367.175 1747.72 C 394.033 1714.65 423.355 1679.24 447.317 1644.04 C 473.896 1604.99 481.12 1557.67 493.508 1512.44 C 502.226 1481.68 511.325 1451.03 520.804 1420.5 C 533.588 1379.62 546.678 1336.79 565.496 1298.3 C 579.568 1271.36 601.989 1249.46 621.61 1226.65 C 651.047 1191.94 676.38 1152.29 699.636 1113.26 C 725.187 1070.38 766.51 1059.44 801.002 1027.54 C 820.106 1009.87 835.746 980.73 858.01 965.633 C 883.248 948.52 902.038 973.025 913.262 992.316 C 915.32 991.235 915.843 988.696 917.1 986.017 C 920.273 975.641 928.902 955.993 933.38 945.242 L 961.206 877.946 L 994.106 798.112 C 1000.36 782.957 1008.91 760.503 1016.85 746.906 C 1024.23 734.241 1034.25 723.307 1046.22 714.846 C 1088.28 685.334 1140.55 701.597 1187.57 708.396 C 1244.93 716.691 1304.24 724.548 1361.24 734.456 z M 787.329 1299.05 C 790.958 1292.48 793.755 1285.04 796.582 1278.06 C 801.573 1263.31 811.225 1243.19 817.15 1228.09 C 820.518 1219.5 830.552 1194.83 834.667 1187.69 C 836.389 1182.82 837.891 1178.86 839.893 1174.07 C 836.731 1176.97 825.688 1186.7 823.983 1189.65 C 818.08 1199.86 811.292 1212.81 806.043 1223.38 C 794.149 1247.35 773.889 1277.54 767.122 1302.45 L 787.329 1299.05 z"/>
<path transform="translate(0,0)" fill="url(#Gradient10)" d="M 112.033 2048 C 120.29 2036.64 132.54 2023.39 141.968 2012.62 L 187.935 1959.87 C 248.696 1890.02 308.448 1819.29 367.175 1747.72 C 394.033 1714.65 423.355 1679.24 447.317 1644.04 C 473.896 1604.99 481.12 1557.67 493.508 1512.44 C 502.226 1481.68 511.325 1451.03 520.804 1420.5 C 533.588 1379.62 546.678 1336.79 565.496 1298.3 C 579.568 1271.36 601.989 1249.46 621.61 1226.65 C 651.047 1191.94 676.38 1152.29 699.636 1113.26 C 725.187 1070.38 766.51 1059.44 801.002 1027.54 C 820.106 1009.87 835.746 980.73 858.01 965.633 C 883.248 948.52 902.038 973.025 913.262 992.316 C 915.32 991.235 915.843 988.696 917.1 986.017 C 918.614 989.681 918.998 993.213 915.675 996.235 C 909.592 1010.55 902.241 1028.22 897.467 1042.92 L 895.802 1046.72 C 881.288 1081.3 865.957 1115.36 851.134 1149.8 C 847.82 1157.51 845.697 1167.5 842.668 1175.29 C 841.696 1177.79 836.956 1184.94 835.257 1188.1 L 834.667 1187.69 C 836.389 1182.82 837.891 1178.86 839.893 1174.07 C 836.731 1176.97 825.688 1186.7 823.983 1189.65 C 818.08 1199.86 811.292 1212.81 806.043 1223.38 C 794.149 1247.35 773.889 1277.54 767.122 1302.45 L 787.329 1299.05 C 790.958 1292.48 793.755 1285.04 796.582 1278.06 C 796.173 1286.9 792.89 1293.17 792.364 1297.77 C 790.703 1302.19 788.063 1307.28 784.643 1310.56 C 785.02 1311.91 785.491 1313.59 786.054 1315.61 C 784.2 1323.72 778.992 1335.01 775.901 1342.58 L 740.465 1429.41 C 737.414 1437.09 730.277 1451.8 728.417 1458.88 C 721.183 1476.62 713.574 1494.94 706.5 1512.69 C 693.164 1546.17 666.566 1596.29 668.948 1631.84 C 676.466 1660.51 695.016 1671.7 722.6 1678.58 C 739.527 1682.79 756.767 1687.42 773.694 1691.76 L 890.492 1721.85 L 1005.61 1751.89 C 1034.56 1759.72 1063.95 1767.79 1093.28 1774.07 C 1108.72 1777.38 1142.88 1771.92 1154.23 1760.28 C 1156.88 1755.62 1162.79 1750.49 1166.84 1746.79 C 1185.41 1729.84 1191.74 1705.61 1200.42 1682.48 C 1211.09 1653.48 1221.61 1624.42 1231.99 1595.32 C 1234.99 1586.98 1244.38 1559.34 1248.21 1552.96 L 1249.26 1553.31 C 1253.79 1544.75 1250.65 1537.62 1255.01 1526.26 L 1256.79 1518.77 C 1259.24 1519.86 1268.58 1534.4 1272.12 1538.61 C 1283.29 1551.88 1292.52 1556.14 1306.67 1565.62 C 1291.78 1559.75 1291.42 1557.24 1278.9 1550.23 C 1277.37 1557.12 1260.85 1605.98 1257.45 1609.72 C 1253.22 1619.13 1227.82 1690.96 1226.92 1698.76 C 1221.99 1702.99 1216.24 1723.81 1213.62 1731.04 C 1199.31 1770.5 1166.31 1802.13 1122.85 1803.88 C 1104.46 1804.8 1088.35 1801.22 1070.73 1796.56 C 1053.45 1808.62 1036.64 1821.83 1019.45 1834.15 C 990.652 1854.88 960.678 1873.94 929.679 1891.21 C 904.843 1904.83 878.56 1916.94 852.414 1927.91 C 821.195 1941.01 784.058 1951.82 755.887 1970.5 C 728.31 1988.77 698.452 2021.42 678.257 2048 L 112.033 2048 z"/>
<path transform="translate(0,0)" fill="rgb(17,16,15)" d="M 783.942 1312.45 L 784.643 1310.56 C 785.02 1311.91 785.491 1313.59 786.054 1315.61 C 784.2 1323.72 778.992 1335.01 775.901 1342.58 L 740.465 1429.41 C 737.414 1437.09 730.277 1451.8 728.417 1458.88 C 721.183 1476.62 713.574 1494.94 706.5 1512.69 C 693.164 1546.17 666.566 1596.29 668.948 1631.84 C 665.923 1634.85 668.109 1634.5 666.993 1640.13 C 668.935 1648.48 673.564 1656.94 679.184 1663.42 C 681.119 1676.26 706.176 1695.16 718.027 1699.87 C 734.801 1707.09 752.947 1710.36 770.322 1715.63 C 798.164 1724.08 827.004 1729.26 854.525 1738.51 C 858.182 1739.74 865.633 1739.33 869.2 1740.65 C 898.688 1751.61 930.108 1756.32 959.93 1766.3 C 965.742 1768.24 970.515 1768.72 976.462 1771.24 L 975.6 1771.91 C 970.21 1771.95 959.147 1766.84 956.884 1767.47 C 931.077 1774.85 900.568 1771.56 874.062 1770.19 C 872.751 1770.12 831.35 1759.91 829.494 1759.18 C 803.839 1749.19 778.638 1746.01 752.563 1738.2 C 742.78 1735.27 733.742 1731.72 724.266 1727.82 C 689.338 1717.95 665.794 1686.05 660.642 1650.69 C 659.59 1643.46 659.965 1632.98 658.01 1625.73 L 656.719 1625.17 C 651.211 1634.8 651.829 1653.57 651.223 1663.53 C 645.34 1658.5 652.823 1618.17 655.716 1610.53 C 670.429 1571.71 686.276 1532.59 704.064 1495.06 C 705.402 1491.52 705.42 1486.06 707.031 1482.81 C 722.192 1452.29 730.175 1419.16 744.423 1388.21 C 747.298 1381.96 746.938 1374.15 750.364 1367.66 C 753.379 1361.95 754.418 1362.2 758.502 1358.36 C 760.538 1354.77 759.366 1349.92 763.284 1344.63 C 775.861 1339.67 769.226 1334.94 776.401 1328.81 L 778.721 1324.72 C 780.851 1320.24 782.358 1317.21 783.942 1312.45 z"/>
<path transform="translate(0,0)" fill="rgb(39,39,39)" d="M 783.942 1312.45 L 784.643 1310.56 C 785.02 1311.91 785.491 1313.59 786.054 1315.61 C 784.2 1323.72 778.992 1335.01 775.901 1342.58 L 740.465 1429.41 C 737.414 1437.09 730.277 1451.8 728.417 1458.88 C 721.183 1476.62 713.574 1494.94 706.5 1512.69 C 693.164 1546.17 666.566 1596.29 668.948 1631.84 C 665.923 1634.85 668.109 1634.5 666.993 1640.13 C 664.275 1631.12 664.024 1611.15 666.738 1602.18 C 675.489 1573.25 688.991 1544.32 700.38 1516.39 C 726.335 1454.12 751.677 1391.58 776.401 1328.81 L 778.721 1324.72 C 780.851 1320.24 782.358 1317.21 783.942 1312.45 z"/>
<path transform="translate(0,0)" fill="rgb(17,16,15)" d="M 1255.01 1526.26 L 1256.79 1518.77 C 1259.24 1519.86 1268.58 1534.4 1272.12 1538.61 C 1283.29 1551.88 1292.52 1556.14 1306.67 1565.62 C 1291.78 1559.75 1291.42 1557.24 1278.9 1550.23 C 1277.37 1557.12 1260.85 1605.98 1257.45 1609.72 C 1261.52 1591.17 1271.32 1569.93 1275.79 1551.16 C 1276.5 1548.18 1266.47 1539.62 1259.85 1545.81 C 1259.06 1548.32 1258.43 1550.22 1257.17 1552.56 L 1257.2 1552.6 C 1257.04 1550.22 1258.66 1543.04 1259.19 1540.28 C 1259.09 1542.65 1253.44 1553.18 1252.43 1558.72 C 1240.04 1592.06 1227.91 1625.5 1216.03 1659.03 C 1205.71 1688.11 1191.85 1736.58 1167.95 1755.9 C 1147.32 1772 1128.63 1780.82 1101.64 1778.96 C 1102.39 1779.27 1081.65 1775.19 1079.02 1774.54 C 1059.16 1769.63 1038.91 1764.45 1019.04 1759.44 C 1019.05 1759.44 1015.03 1761.05 1014.61 1761.22 C 980.419 1750.96 941.034 1741.36 906.221 1732.52 L 786.158 1701.19 C 765.713 1695.76 690.147 1680.72 679.184 1663.42 C 673.564 1656.94 668.935 1648.48 666.993 1640.13 C 668.109 1634.5 665.923 1634.85 668.948 1631.84 C 676.466 1660.51 695.016 1671.7 722.6 1678.58 C 739.527 1682.79 756.767 1687.42 773.694 1691.76 L 890.492 1721.85 L 1005.61 1751.89 C 1034.56 1759.72 1063.95 1767.79 1093.28 1774.07 C 1108.72 1777.38 1142.88 1771.92 1154.23 1760.28 C 1156.88 1755.62 1162.79 1750.49 1166.84 1746.79 C 1185.41 1729.84 1191.74 1705.61 1200.42 1682.48 C 1211.09 1653.48 1221.61 1624.42 1231.99 1595.32 C 1234.99 1586.98 1244.38 1559.34 1248.21 1552.96 L 1249.26 1553.31 C 1253.79 1544.75 1250.65 1537.62 1255.01 1526.26 z"/>
<path transform="translate(0,0)" fill="rgb(252,252,252)" d="M 1154.23 1760.28 C 1156.88 1755.62 1162.79 1750.49 1166.84 1746.79 C 1185.41 1729.84 1191.74 1705.61 1200.42 1682.48 C 1211.09 1653.48 1221.61 1624.42 1231.99 1595.32 C 1234.99 1586.98 1244.38 1559.34 1248.21 1552.96 L 1249.26 1553.31 C 1241.74 1579.88 1228.29 1613.55 1218.78 1640.46 C 1208.53 1669.45 1196.97 1705.18 1182.72 1732.02 C 1177.04 1742.71 1163.85 1753.18 1154.23 1760.28 z"/>
<path transform="translate(0,0)" fill="rgb(17,16,15)" d="M 792.364 1297.77 C 790.341 1298.81 788.46 1299.89 786.482 1301.01 L 785.705 1303.81 C 785.298 1301.94 785.406 1302.45 784.462 1300.73 C 777.804 1301.85 770.456 1306.35 765.077 1301.67 C 764.05 1288.95 815.12 1208.41 820.625 1190.37 C 821.527 1187.42 834.936 1175.27 839.028 1174.36 L 840.581 1177.52 C 845.889 1174.18 839.985 1165.41 838.141 1162.39 C 837.428 1151.17 848.901 1148.38 844.589 1142.37 C 846.126 1138.43 846.937 1141.12 850.547 1137.03 C 848.104 1135.18 847.573 1134.99 845.731 1132.48 C 846.249 1128.45 858.77 1114.68 861.967 1109.6 C 864.724 1105.22 867.175 1101.18 869.616 1096.42 C 885.336 1065.78 897.78 1033.44 909.269 1001.03 C 910.105 998.673 910.759 997.067 912.607 995.329 L 915.675 996.235 C 909.592 1010.55 902.241 1028.22 897.467 1042.92 L 895.802 1046.72 C 881.288 1081.3 865.957 1115.36 851.134 1149.8 C 847.82 1157.51 845.697 1167.5 842.668 1175.29 C 841.696 1177.79 836.956 1184.94 835.257 1188.1 L 834.667 1187.69 C 836.389 1182.82 837.891 1178.86 839.893 1174.07 C 836.731 1176.97 825.688 1186.7 823.983 1189.65 C 818.08 1199.86 811.292 1212.81 806.043 1223.38 C 794.149 1247.35 773.889 1277.54 767.122 1302.45 L 787.329 1299.05 C 790.958 1292.48 793.755 1285.04 796.582 1278.06 C 796.173 1286.9 792.89 1293.17 792.364 1297.77 z"/>
<path transform="translate(0,0)" fill="rgb(252,252,252)" d="M 1252.43 1558.72 C 1253.07 1566 1230.68 1627.18 1225.92 1639.14 C 1210.61 1677.7 1200.29 1729.38 1169.51 1757.91 L 1167.95 1755.9 C 1191.85 1736.58 1205.71 1688.11 1216.03 1659.03 C 1227.91 1625.5 1240.04 1592.06 1252.43 1558.72 z"/>
<path transform="translate(0,0)" fill="rgb(104,103,104)" d="M 1101.64 1778.96 C 1128.63 1780.82 1147.32 1772 1167.95 1755.9 L 1169.51 1757.91 C 1154.95 1771.91 1122.83 1784.66 1102.71 1781.24 L 1101.64 1778.96 z"/>
<path transform="translate(0,0)" fill="rgb(17,16,15)" d="M 778.721 1324.72 C 777.484 1324.04 776.648 1323.94 775.375 1323.34 L 775.072 1320.64 C 776.745 1317.41 780.85 1314.89 783.942 1312.45 C 782.358 1317.21 780.851 1320.24 778.721 1324.72 z"/>
<path transform="translate(0,0)" fill="rgb(104,103,104)" d="M 706.23 1250.64 C 720.398 1250.48 708.618 1278.81 707.023 1286.59 C 698.233 1329.48 689.329 1369.4 691.234 1413.7 C 691.725 1425.1 681.963 1446.07 679.455 1457.49 C 676.085 1472.84 669.642 1510.35 647.031 1507.18 C 646.092 1506.44 642.772 1503.74 642.333 1502.87 C 631.979 1482.28 634.973 1436.32 639.617 1414.33 C 643.794 1394.55 648.54 1377.85 652.63 1358.73 C 654.332 1350.78 659.926 1324.41 661.87 1319.85 C 670.642 1299.26 687.833 1262.74 706.23 1250.64 z"/>
<path transform="translate(0,0)" fill="rgb(104,103,104)" d="M 882.418 983.687 C 896.436 988.048 888.248 1007.63 885.429 1016.51 C 879.014 1036.74 867.606 1052.38 852.748 1067.24 C 851.507 1068.45 851.009 1068.32 849.16 1069 C 846.479 1066.75 846.019 1066.68 844.415 1063.5 C 844.352 1061.32 844.301 1057.73 845.319 1055.8 C 855.054 1037.33 870.267 999.028 882.418 983.687 z"/>
<path transform="translate(0,0)" fill="rgb(17,16,15)" d="M 869.802 1729.86 C 881.665 1730.85 916.596 1739.69 927.525 1746.22 C 931.17 1748.4 931.238 1751.21 931.816 1754.65 C 920.193 1753.16 906.07 1748.27 894.368 1745.57 C 885.394 1743.5 870.19 1740.66 869.802 1729.86 z"/>
<path transform="translate(0,0)" fill="rgb(39,39,39)" d="M 917.1 986.017 C 920.273 975.641 928.902 955.993 933.38 945.242 L 961.206 877.946 L 994.106 798.112 C 1000.36 782.957 1008.91 760.503 1016.85 746.906 C 1024.23 734.241 1034.25 723.307 1046.22 714.846 C 1088.28 685.334 1140.55 701.597 1187.57 708.396 C 1244.93 716.691 1304.24 724.548 1361.24 734.456 C 1361.11 738.201 1360.99 747.422 1360.42 750.662 L 1356.1 750.973 C 1300.61 742.314 1245.06 733.946 1189.48 725.87 C 1161.31 721.644 1123.65 713.567 1096.07 714.25 C 1039.55 715.65 1024.52 775.902 1007.69 816.966 L 967.914 913.474 L 836.785 1232.98 L 726.12 1503.14 L 703.665 1557.84 C 693.433 1582.79 675.987 1614.78 695.947 1639.96 C 702.303 1647.98 710.492 1652.72 720.108 1655.83 C 741.802 1662.29 764.533 1667.39 786.509 1673.12 L 947.079 1714.2 L 1042.32 1739.11 C 1057.47 1743.1 1085.56 1751.25 1100.08 1752.63 C 1118.34 1754.48 1136.58 1748.88 1150.66 1737.1 C 1170.04 1721.1 1178.43 1690.53 1186.84 1667.43 C 1207.74 1610.03 1228.37 1552.49 1249.14 1495.04 C 1252.8 1484.84 1254.31 1473.4 1257.96 1463.16 C 1264.45 1448.81 1268.98 1445.15 1274.59 1428.95 C 1275.83 1434.15 1273.53 1436.07 1273.61 1441.11 C 1276.05 1439.34 1278.89 1436.69 1281.21 1434.65 C 1284.36 1434.41 1288.83 1432.95 1291.98 1432.06 C 1294.58 1431.5 1293.41 1431.99 1295.38 1430.22 C 1297.22 1431.49 1296.72 1431.51 1298.71 1431.9 L 1301.27 1431.82 C 1321.56 1436.03 1351.32 1447.89 1370.21 1456.57 C 1372.76 1458.99 1373.24 1459.6 1376.43 1461.33 C 1404.64 1480.13 1410.62 1523.69 1398.54 1553.22 C 1381.55 1611.7 1344.11 1627.13 1295.99 1656.11 C 1274.72 1668.92 1251.76 1685.04 1230.16 1697.01 C 1229.08 1697.61 1228 1698.19 1226.92 1698.76 C 1227.82 1690.96 1253.22 1619.13 1257.45 1609.72 C 1260.85 1605.98 1277.37 1557.12 1278.9 1550.23 C 1291.42 1557.24 1291.78 1559.75 1306.67 1565.62 C 1292.52 1556.14 1283.29 1551.88 1272.12 1538.61 C 1268.58 1534.4 1259.24 1519.86 1256.79 1518.77 L 1255.01 1526.26 C 1250.65 1537.62 1253.79 1544.75 1249.26 1553.31 L 1248.21 1552.96 C 1244.38 1559.34 1234.99 1586.98 1231.99 1595.32 C 1221.61 1624.42 1211.09 1653.48 1200.42 1682.48 C 1191.74 1705.61 1185.41 1729.84 1166.84 1746.79 C 1162.79 1750.49 1156.88 1755.62 1154.23 1760.28 C 1142.88 1771.92 1108.72 1777.38 1093.28 1774.07 C 1063.95 1767.79 1034.56 1759.72 1005.61 1751.89 L 890.492 1721.85 L 773.694 1691.76 C 756.767 1687.42 739.527 1682.79 722.6 1678.58 C 695.016 1671.7 676.466 1660.51 668.948 1631.84 C 666.566 1596.29 693.164 1546.17 706.5 1512.69 C 713.574 1494.94 721.183 1476.62 728.417 1458.88 C 730.277 1451.8 737.414 1437.09 740.465 1429.41 L 775.901 1342.58 C 778.992 1335.01 784.2 1323.72 786.054 1315.61 C 785.491 1313.59 785.02 1311.91 784.643 1310.56 C 788.063 1307.28 790.703 1302.19 792.364 1297.77 C 792.89 1293.17 796.173 1286.9 796.582 1278.06 C 801.573 1263.31 811.225 1243.19 817.15 1228.09 C 820.518 1219.5 830.552 1194.83 834.667 1187.69 L 835.257 1188.1 C 836.956 1184.94 841.696 1177.79 842.668 1175.29 C 845.697 1167.5 847.82 1157.51 851.134 1149.8 C 865.957 1115.36 881.288 1081.3 895.802 1046.72 L 897.467 1042.92 C 902.241 1028.22 909.592 1010.55 915.675 996.235 C 918.998 993.213 918.614 989.681 917.1 986.017 z"/>
<path transform="translate(0,0)" fill="url(#Gradient9)" d="M 728.417 1458.88 C 728.47 1461.2 728.494 1463.53 728.49 1465.85 C 730.407 1466.93 729.415 1466.76 731.435 1466.51 L 732.137 1466.9 L 699.762 1545.96 C 688.974 1572.15 670.647 1605.44 681.489 1634.25 C 685.918 1646.02 697.53 1656.42 709.209 1660.68 C 733.588 1669.29 760.131 1674.83 785.269 1681.15 L 907.926 1712.87 L 1033.07 1745.32 C 1064.84 1753.57 1105.65 1769.76 1137.58 1755.49 C 1158.44 1746.17 1175.36 1725 1182.55 1703.82 C 1199.14 1658.86 1215.06 1613.82 1231.5 1568.93 L 1247.61 1524.5 C 1250.15 1517.61 1251.58 1518.12 1253.82 1509.07 C 1254.04 1512.97 1254.09 1523.24 1255.01 1526.26 C 1250.65 1537.62 1253.79 1544.75 1249.26 1553.31 L 1248.21 1552.96 C 1244.38 1559.34 1234.99 1586.98 1231.99 1595.32 C 1221.61 1624.42 1211.09 1653.48 1200.42 1682.48 C 1191.74 1705.61 1185.41 1729.84 1166.84 1746.79 C 1162.79 1750.49 1156.88 1755.62 1154.23 1760.28 C 1142.88 1771.92 1108.72 1777.38 1093.28 1774.07 C 1063.95 1767.79 1034.56 1759.72 1005.61 1751.89 L 890.492 1721.85 L 773.694 1691.76 C 756.767 1687.42 739.527 1682.79 722.6 1678.58 C 695.016 1671.7 676.466 1660.51 668.948 1631.84 C 666.566 1596.29 693.164 1546.17 706.5 1512.69 C 713.574 1494.94 721.183 1476.62 728.417 1458.88 z"/>
<path transform="translate(0,0)" fill="rgb(68,68,69)" d="M 1295.38 1430.22 C 1297.22 1431.49 1296.72 1431.51 1298.71 1431.9 L 1301.27 1431.82 C 1321.56 1436.03 1351.32 1447.89 1370.21 1456.57 C 1372.76 1458.99 1373.24 1459.6 1376.43 1461.33 C 1404.64 1480.13 1410.62 1523.69 1398.54 1553.22 C 1397.77 1549.19 1400.85 1540.3 1401.7 1534.98 C 1396.07 1532.97 1369.58 1534.19 1359.96 1532.78 C 1348.96 1531.17 1334.5 1525.85 1325.36 1525.35 C 1317.9 1518.82 1318.13 1515.24 1312.04 1508.21 C 1310.64 1506.59 1304.41 1504.3 1302.73 1502.69 C 1286.52 1487.2 1284.85 1471.97 1282.04 1452.07 C 1278.86 1448.63 1276.09 1446.85 1272.48 1443.88 L 1273.61 1441.11 C 1276.05 1439.34 1278.89 1436.69 1281.21 1434.65 C 1284.36 1434.41 1288.83 1432.95 1291.98 1432.06 C 1294.58 1431.5 1293.41 1431.99 1295.38 1430.22 z"/>
<path transform="translate(0,0)" fill="rgb(104,103,104)" d="M 1315.1 1453.46 C 1324.82 1460.9 1324.51 1480.71 1322.68 1491.57 L 1322.37 1489.14 C 1320.27 1492.56 1321.83 1501.2 1322.43 1505.15 L 1322.77 1505.85 L 1321.97 1505.11 C 1321.08 1505.41 1320.19 1505.71 1319.3 1506 L 1319.52 1505.62 C 1317.5 1500 1320.83 1476.86 1319.53 1469.18 C 1318.36 1462.27 1317.44 1460.06 1315.1 1453.46 z"/>
<path transform="translate(0,0)" fill="rgb(138,136,136)" d="M 1309.12 1460.71 L 1310.03 1461.01 C 1314.95 1468.39 1308.83 1475.19 1302.71 1479.22 L 1299.92 1477.82 C 1299.34 1476.63 1298.68 1474.73 1298.18 1473.44 C 1300.1 1469.28 1303.57 1464.77 1308.11 1463.52 L 1309.12 1460.71 z"/>
<path transform="translate(0,0)" fill="rgb(68,68,69)" d="M 917.1 986.017 C 920.273 975.641 928.902 955.993 933.38 945.242 L 961.206 877.946 L 994.106 798.112 C 1000.36 782.957 1008.91 760.503 1016.85 746.906 C 1024.23 734.241 1034.25 723.307 1046.22 714.846 C 1088.28 685.334 1140.55 701.597 1187.57 708.396 C 1244.93 716.691 1304.24 724.548 1361.24 734.456 C 1361.11 738.201 1360.99 747.422 1360.42 750.662 C 1360.26 747.64 1360.63 744.578 1359.28 742.39 L 1357.9 742.358 C 1336.47 741.781 1308.8 736.149 1287.46 733.014 L 1167.38 715.415 C 1148.63 712.527 1130.27 709.417 1111.4 707.316 C 1077.34 703.526 1042.17 721.511 1026.94 752.538 C 1016.03 774.769 1007.13 798.531 997.58 821.52 L 939.43 962.753 C 933.252 977.477 927.309 993.314 920.797 1007.72 L 917.808 1006.34 C 911.151 1013.64 909.902 1033.37 902.159 1041.31 C 900.277 1041.96 898.713 1042.5 897.467 1042.92 C 902.241 1028.22 909.592 1010.55 915.675 996.235 C 918.998 993.213 918.614 989.681 917.1 986.017 z"/>
<path transform="translate(0,0)" fill="url(#Gradient8)" d="M 895.802 1046.72 C 899.365 1064.15 854.885 1141.38 862.314 1149.82 L 817.088 1259.74 C 813.271 1268.8 803.395 1294.61 799.492 1301.28 C 796.549 1308.8 793.141 1318.26 789.623 1325.35 C 784.769 1340.1 774.022 1364.34 767.905 1379.15 L 732.137 1466.9 L 731.435 1466.51 C 729.415 1466.76 730.407 1466.93 728.49 1465.85 C 728.494 1463.53 728.47 1461.2 728.417 1458.88 C 730.277 1451.8 737.414 1437.09 740.465 1429.41 L 775.901 1342.58 C 778.992 1335.01 784.2 1323.72 786.054 1315.61 C 785.491 1313.59 785.02 1311.91 784.643 1310.56 C 788.063 1307.28 790.703 1302.19 792.364 1297.77 C 792.89 1293.17 796.173 1286.9 796.582 1278.06 C 801.573 1263.31 811.225 1243.19 817.15 1228.09 C 820.518 1219.5 830.552 1194.83 834.667 1187.69 L 835.257 1188.1 C 836.956 1184.94 841.696 1177.79 842.668 1175.29 C 845.697 1167.5 847.82 1157.51 851.134 1149.8 C 865.957 1115.36 881.288 1081.3 895.802 1046.72 z"/>
<path transform="translate(0,0)" fill="rgb(104,103,104)" d="M 789.623 1325.35 C 788.805 1317.6 792.92 1305.79 799.492 1301.28 C 796.549 1308.8 793.141 1318.26 789.623 1325.35 z"/>
<path transform="translate(0,0)" fill="rgb(104,103,104)" d="M 897.467 1042.92 C 898.713 1042.5 900.277 1041.96 902.159 1041.31 C 909.902 1033.37 911.151 1013.64 917.808 1006.34 L 920.797 1007.72 L 883.355 1098.18 C 877.327 1112.88 868.754 1136.37 862.314 1149.82 C 854.885 1141.38 899.365 1064.15 895.802 1046.72 L 897.467 1042.92 z"/>
<path transform="translate(0,0)" fill="rgb(242,140,39)" d="M 1361.24 734.456 C 1376.3 659.954 1439.26 603.099 1516.14 598.038 C 1545.5 596.106 1579.93 606.708 1599.22 630.106 C 1615.72 644.655 1632.66 678.893 1635.47 701.327 C 1638.37 742.971 1623.51 776.812 1596.75 808.567 C 1593.13 812.864 1584.78 821.262 1580.14 824.443 C 1567.5 836.759 1555.15 843.939 1539.08 851.45 C 1533.97 853.834 1525.58 856.97 1520.87 859.51 C 1516.25 860.84 1510.61 862.633 1505.98 863.556 C 1501.83 864.179 1477.39 866.757 1475.94 868.412 L 1475.9 868.783 C 1474.72 872.149 1472.12 880.192 1470.62 882.977 C 1452.3 887.799 1438.9 883.51 1421.47 878.154 C 1418.14 872.074 1415.85 859.223 1413.3 856.307 C 1404.28 845.968 1398.52 849.823 1389.94 835.943 L 1391.15 837.012 C 1388.01 827.572 1384.54 825.763 1381.49 816.918 C 1374.27 806.86 1369.91 800.866 1366.41 788.99 C 1361.42 779.798 1360.17 760.941 1360.42 750.662 C 1360.99 747.422 1361.11 738.201 1361.24 734.456 z"/>
<path transform="translate(0,0)" fill="rgb(160,79,18)" d="M 1366.41 788.99 C 1371.58 795.951 1374.59 805.42 1379.74 811.967 C 1394.98 831.329 1421.57 840.38 1444.59 845.253 C 1455.39 843.879 1467.49 846.534 1477.78 844.745 C 1488.73 842.84 1520.22 830.779 1529.11 831.247 C 1541.54 825.593 1547.49 821.272 1558.56 813.048 C 1554.34 819.2 1545.34 824.204 1538.91 828.207 C 1540.79 832.441 1544.27 841.279 1547.05 844.293 C 1555.7 844.41 1573.84 824.557 1580.14 824.443 C 1567.5 836.759 1555.15 843.939 1539.08 851.45 C 1533.97 853.834 1525.58 856.97 1520.87 859.51 C 1516.25 860.84 1510.61 862.633 1505.98 863.556 C 1501.83 864.179 1477.39 866.757 1475.94 868.412 L 1475.9 868.783 C 1474.72 872.149 1472.12 880.192 1470.62 882.977 C 1452.3 887.799 1438.9 883.51 1421.47 878.154 C 1418.14 872.074 1415.85 859.223 1413.3 856.307 C 1404.28 845.968 1398.52 849.823 1389.94 835.943 L 1391.15 837.012 C 1388.01 827.572 1384.54 825.763 1381.49 816.918 C 1374.27 806.86 1369.91 800.866 1366.41 788.99 z"/>
<path transform="translate(0,0)" fill="rgb(138,136,136)" d="M 1381.49 816.918 C 1407.36 848.855 1426.36 863.651 1468.96 867.596 C 1471.8 867.859 1473.22 867.851 1475.9 868.783 C 1474.72 872.149 1472.12 880.192 1470.62 882.977 C 1452.3 887.799 1438.9 883.51 1421.47 878.154 C 1418.14 872.074 1415.85 859.223 1413.3 856.307 C 1404.28 845.968 1398.52 849.823 1389.94 835.943 L 1391.15 837.012 C 1388.01 827.572 1384.54 825.763 1381.49 816.918 z"/>
<path transform="translate(0,0)" fill="rgb(228,127,32)" d="M 1444.59 845.253 C 1455.39 843.879 1467.49 846.534 1477.78 844.745 C 1488.73 842.84 1520.22 830.779 1529.11 831.247 C 1506.4 844.059 1488.36 846.688 1462.17 846.374 C 1457.18 846.314 1448.99 846.479 1444.59 845.253 z"/>
<path transform="translate(0,0)" fill="rgb(228,127,32)" d="M 1599.22 630.106 C 1615.72 644.655 1632.66 678.893 1635.47 701.327 C 1638.37 742.971 1623.51 776.812 1596.75 808.567 C 1593.13 812.864 1584.78 821.262 1580.14 824.443 C 1573.84 824.557 1555.7 844.41 1547.05 844.293 C 1544.27 841.279 1540.79 832.441 1538.91 828.207 C 1545.34 824.204 1554.34 819.2 1558.56 813.048 C 1560.61 809.762 1566.65 805.51 1570.28 800.546 C 1569.1 797.48 1579.37 787.982 1582.45 784.321 C 1605.15 757.762 1617.43 723.861 1617.01 688.925 C 1616.94 673.055 1614.15 660.369 1606.38 646.576 C 1603.85 642.086 1599.86 635.029 1599.22 630.106 z"/>
<path transform="translate(0,0)" fill="rgb(250,168,72)" d="M 1599.22 630.106 C 1615.72 644.655 1632.66 678.893 1635.47 701.327 L 1634.6 707.595 L 1633.78 707.4 C 1633.38 698.189 1629.3 679.009 1624.39 671.292 C 1621.39 669.838 1622.66 669.727 1620.21 670.295 C 1620.56 676.336 1620.5 681.444 1620.42 687.48 L 1617.01 688.925 C 1616.94 673.055 1614.15 660.369 1606.38 646.576 C 1603.85 642.086 1599.86 635.029 1599.22 630.106 z"/>
<path transform="translate(0,0)" fill="rgb(248,217,145)" d="M 1617.01 688.925 L 1620.42 687.48 C 1620.5 731.957 1603.47 770.379 1570.28 800.546 C 1569.1 797.48 1579.37 787.982 1582.45 784.321 C 1605.15 757.762 1617.43 723.861 1617.01 688.925 z"/>
<path transform="translate(0,0)" fill="rgb(68,68,69)" d="M 1425.37 647.56 C 1462.24 612.071 1545.13 590.626 1583.3 634.374 C 1597.67 647.184 1606.13 670.3 1606.86 689.191 C 1609.59 763.333 1539.52 830.811 1467.28 834.555 C 1443.6 835.782 1415.2 828.872 1397.8 812.271 C 1353.95 770.436 1373.41 700.438 1410.55 661.176 C 1414.76 656.728 1420.44 650.945 1425.37 647.56 z"/>
<path transform="translate(0,0)" fill="rgb(17,16,15)" d="M 1425.37 647.56 C 1462.24 612.071 1545.13 590.626 1583.3 634.374 L 1581.92 634.962 L 1581.08 634.32 C 1540.36 603.911 1486.96 609.693 1445.91 635.241 C 1442.42 637.415 1428.27 647.643 1425.37 647.56 z"/>
<path transform="translate(0,0)" fill="rgb(242,140,39)" d="M 1465.39 661.559 C 1489.52 662.727 1524.85 666.912 1547.88 666.528 L 1553.13 669.365 C 1552.43 676.409 1548.04 679.657 1543.06 684.668 C 1534.14 684.541 1529.12 684.53 1520.43 683.06 L 1521.15 694.493 C 1525.6 694.886 1534.84 695.946 1538.79 695.506 L 1543.26 698.029 C 1542.82 703.883 1538.72 708.731 1534.71 712.807 L 1533.14 713.197 L 1532.94 713.073 C 1527.14 713.751 1522.2 712.929 1516.39 712.323 C 1507.8 729.718 1482.42 743.69 1463.39 738.182 C 1472.79 756.74 1483.13 774.621 1492.61 793.109 C 1492.44 793.811 1492.28 794.513 1492.11 795.215 L 1490.4 795.996 C 1481.6 791.033 1477.71 791.877 1467.75 790.915 C 1458.14 772.702 1447.76 753.436 1438.93 734.825 C 1436.26 729.188 1436.83 727.643 1439.22 722.167 L 1438.69 721.503 C 1443.04 715.676 1438.97 710.667 1444.02 701.926 L 1444.91 702.105 C 1447.29 696.492 1451.37 692.23 1455.52 687.946 C 1453.34 683.375 1450.94 676.411 1454.16 671.935 L 1455.43 672.389 C 1458.92 668.977 1462.14 665.209 1465.39 661.559 z"/>
<path transform="translate(0,0)" fill="rgb(39,39,39)" d="M 1439.22 722.167 L 1438.69 721.503 C 1443.04 715.676 1438.97 710.667 1444.02 701.926 L 1444.91 702.105 C 1452.15 707.525 1466.15 704.775 1475.19 705.483 C 1481.79 706.001 1488.88 706.786 1495.41 707.08 C 1471.61 732.321 1450.42 711.497 1439.22 722.167 z"/>
<path transform="translate(0,0)" fill="rgb(39,39,39)" d="M 1455.52 687.946 C 1453.34 683.375 1450.94 676.411 1454.16 671.935 L 1455.43 672.389 L 1455.37 674.938 C 1463.54 681.117 1500.53 670.388 1499.95 690.621 C 1495.42 693.282 1462.91 688.774 1455.52 687.946 z"/>
<path transform="translate(0,0)" fill="rgb(160,79,18)" d="M 1515.66 708.902 C 1523.52 710.874 1526.93 707.436 1532.94 713.073 C 1527.14 713.751 1522.2 712.929 1516.39 712.323 C 1507.8 729.718 1482.42 743.69 1463.39 738.182 C 1461.63 736.133 1461.86 737.222 1461.95 735.033 C 1465.94 734.554 1469.7 734.829 1473.56 734.386 C 1494.21 732.012 1503.63 723.647 1515.66 708.902 z"/>
<path transform="translate(0,0)" fill="rgb(250,168,72)" d="M 1538.79 695.506 L 1543.26 698.029 C 1537.57 700.996 1532.87 708.532 1529.04 713.814 C 1532 705.505 1533.98 702.655 1538.79 695.506 z"/>
<path transform="translate(0,0)" fill="rgb(250,168,72)" d="M 1547.88 666.528 L 1553.13 669.365 C 1548.58 670.96 1542.02 679.385 1538.05 683.55 C 1540.87 678.146 1544.75 671.876 1547.88 666.528 z"/>
<path transform="translate(0,0)" fill="url(#Gradient7)" d="M 1520.87 859.51 C 1517.44 875.624 1505.87 906.693 1500.18 923.097 L 1462.72 1032.46 C 1455.75 1052.43 1444.2 1081.6 1438.82 1101.69 C 1451.61 1097.18 1474.68 1095.41 1488.24 1099.09 C 1512.68 1104.15 1530.27 1125.76 1527.08 1150.99 C 1526.54 1198.27 1452 1231.1 1418.21 1253.61 C 1410.78 1258.56 1393.75 1268.84 1385.79 1272.54 C 1382.41 1275.34 1377.79 1278.67 1375.03 1281.78 C 1411.99 1284.72 1455.53 1307.43 1457.99 1348.92 C 1467.99 1399.43 1413.43 1437.86 1376.43 1461.33 C 1373.24 1459.6 1372.76 1458.99 1370.21 1456.57 C 1351.32 1447.89 1321.56 1436.03 1301.27 1431.82 L 1298.71 1431.9 C 1296.72 1431.51 1297.22 1431.49 1295.38 1430.22 C 1293.41 1431.99 1294.58 1431.5 1291.98 1432.06 C 1288.83 1432.95 1284.36 1434.41 1281.21 1434.65 C 1278.89 1436.69 1276.05 1439.34 1273.61 1441.11 C 1273.53 1436.07 1275.83 1434.15 1274.59 1428.95 C 1275.63 1424.9 1277.5 1420.22 1278.89 1416.22 C 1286.99 1392.84 1295.77 1369.65 1304.31 1346.44 L 1359.44 1194.21 L 1430.33 996.422 C 1439.95 969.553 1453.83 925.138 1464.63 900.676 C 1465.85 895.395 1468.69 888.274 1470.62 882.977 C 1472.12 880.192 1474.72 872.149 1475.9 868.783 L 1475.94 868.412 C 1477.39 866.757 1501.83 864.179 1505.98 863.556 C 1510.61 862.633 1516.25 860.84 1520.87 859.51 z"/>
<path transform="translate(0,0)" fill="url(#Gradient6)" d="M 1438.82 1101.69 C 1451.61 1097.18 1474.68 1095.41 1488.24 1099.09 C 1512.68 1104.15 1530.27 1125.76 1527.08 1150.99 C 1526.54 1198.27 1452 1231.1 1418.21 1253.61 C 1410.78 1258.56 1393.75 1268.84 1385.79 1272.54 L 1384.36 1271.62 C 1382.57 1272.83 1382.81 1273.02 1380.88 1273.44 C 1381.08 1265.61 1398.5 1210.91 1402.23 1203.13 C 1407.15 1188.32 1431.44 1111.48 1438.28 1103.76 L 1438.82 1101.69 z"/>
<path transform="translate(0,0)" fill="url(#Gradient5)" d="M 1488.24 1099.09 C 1512.68 1104.15 1530.27 1125.76 1527.08 1150.99 C 1525.67 1152.86 1525.61 1153.15 1524.99 1155.34 L 1524.46 1157.26 C 1523.44 1158.29 1521.4 1160.44 1519.89 1160.66 C 1484.38 1165.86 1464.37 1158.81 1471.82 1118.08 C 1472.69 1113.36 1471.99 1104.57 1474.32 1099.89 C 1477.32 1098.76 1483.02 1099.53 1487.32 1099.17 L 1488.24 1099.09 z"/>
<path transform="translate(0,0)" fill="rgb(17,16,15)" d="M 1402.23 1203.13 C 1407.15 1188.32 1431.44 1111.48 1438.28 1103.76 C 1435.66 1119.89 1426.21 1143.09 1420.74 1159.19 C 1417.26 1169.46 1409.78 1194.46 1405.57 1203.26 C 1404.29 1203.25 1403.51 1203.3 1402.23 1203.13 z"/>
<path transform="translate(0,0)" fill="rgb(104,103,104)" d="M 1478.16 868.436 C 1483.39 868.293 1487.66 868.185 1492.93 868.471 C 1490.93 868.564 1484.46 868.385 1483.48 869.672 C 1479.48 874.909 1470.4 897.644 1471.57 903.308 C 1475.37 893.535 1478.13 877.867 1485.02 871.199 C 1488.21 869.632 1490.35 870.441 1493.92 871.028 C 1490.92 875.176 1490.64 876.725 1488.89 881.669 L 1490.67 884.015 C 1486.15 892.873 1473.65 931.633 1469.75 942.978 L 1428.31 1060.96 L 1350.4 1278.8 C 1348.48 1284.04 1346.56 1289.32 1344.5 1294.5 C 1326.84 1338.92 1310.45 1384.82 1295.38 1430.22 C 1293.41 1431.99 1294.58 1431.5 1291.98 1432.06 C 1288.83 1432.95 1284.36 1434.41 1281.21 1434.65 C 1278.89 1436.69 1276.05 1439.34 1273.61 1441.11 C 1273.53 1436.07 1275.83 1434.15 1274.59 1428.95 C 1275.63 1424.9 1277.5 1420.22 1278.89 1416.22 C 1286.99 1392.84 1295.77 1369.65 1304.31 1346.44 L 1359.44 1194.21 L 1430.33 996.422 C 1439.95 969.553 1453.83 925.138 1464.63 900.676 C 1468.19 898.747 1476.24 873.687 1478.16 868.436 z"/>
<path transform="translate(0,0)" fill="url(#Gradient4)" d="M 1478.16 868.436 C 1483.39 868.293 1487.66 868.185 1492.93 868.471 C 1490.93 868.564 1484.46 868.385 1483.48 869.672 C 1479.48 874.909 1470.4 897.644 1471.57 903.308 L 1468.66 913.356 C 1463.05 925.04 1452.64 957.027 1447.94 970.4 L 1413.17 1068.34 L 1326.59 1309.79 L 1294.72 1396.84 C 1290.58 1408.2 1285.69 1423.91 1281.21 1434.65 C 1278.89 1436.69 1276.05 1439.34 1273.61 1441.11 C 1273.53 1436.07 1275.83 1434.15 1274.59 1428.95 C 1275.63 1424.9 1277.5 1420.22 1278.89 1416.22 C 1286.99 1392.84 1295.77 1369.65 1304.31 1346.44 L 1359.44 1194.21 L 1430.33 996.422 C 1439.95 969.553 1453.83 925.138 1464.63 900.676 C 1468.19 898.747 1476.24 873.687 1478.16 868.436 z"/>
<path transform="translate(0,0)" fill="rgb(252,252,252)" d="M 1488.89 881.669 L 1490.67 884.015 C 1486.15 892.873 1473.65 931.633 1469.75 942.978 L 1428.31 1060.96 L 1350.4 1278.8 C 1348.48 1284.04 1346.56 1289.32 1344.5 1294.5 C 1326.84 1338.92 1310.45 1384.82 1295.38 1430.22 C 1293.41 1431.99 1294.58 1431.5 1291.98 1432.06 C 1292.35 1428.42 1300.8 1406.59 1302.67 1401.34 L 1340.43 1297.96 L 1408.34 1107.67 C 1430.44 1045.98 1454.22 981.249 1474.91 919.239 C 1479.78 906.796 1484.44 894.271 1488.89 881.669 z"/>
<path transform="translate(0,0)" fill="url(#Gradient3)" d="M 1471.57 903.308 C 1475.37 893.535 1478.13 877.867 1485.02 871.199 C 1488.21 869.632 1490.35 870.441 1493.92 871.028 C 1490.92 875.176 1490.64 876.725 1488.89 881.669 C 1484.44 894.271 1479.78 906.796 1474.91 919.239 C 1473.83 908.404 1485.99 896.07 1480.8 890.128 L 1479.02 890.314 C 1475.84 892.896 1473.56 907.137 1468.66 913.356 L 1471.57 903.308 z"/>
<path transform="translate(0,0)" fill="rgb(17,16,15)" d="M 1475.9 868.783 L 1475.94 868.412 C 1477.39 866.757 1501.83 864.179 1505.98 863.556 C 1500.26 866.149 1496.24 875.029 1495.59 881.037 C 1485.57 905.678 1476.53 933.067 1467.81 958.238 L 1442.05 1030.82 C 1410.83 1120.27 1379.04 1209.51 1346.67 1298.55 C 1340.14 1313.01 1333.05 1325.04 1332.54 1341.2 C 1330.93 1391.38 1363.24 1419.25 1411.39 1420.44 C 1396.82 1421.93 1390.21 1421.41 1376.24 1416.47 C 1368.36 1419.34 1343.2 1434.93 1341.3 1442.37 C 1346.26 1444.88 1367.41 1451.85 1370.95 1455.93 L 1370.21 1456.57 C 1351.32 1447.89 1321.56 1436.03 1301.27 1431.82 L 1298.71 1431.9 C 1296.72 1431.51 1297.22 1431.49 1295.38 1430.22 C 1310.45 1384.82 1326.84 1338.92 1344.5 1294.5 C 1346.56 1289.32 1348.48 1284.04 1350.4 1278.8 L 1428.31 1060.96 L 1469.75 942.978 C 1473.65 931.633 1486.15 892.873 1490.67 884.015 L 1488.89 881.669 C 1490.64 876.725 1490.92 875.176 1493.92 871.028 C 1490.35 870.441 1488.21 869.632 1485.02 871.199 C 1478.13 877.867 1475.37 893.535 1471.57 903.308 C 1470.4 897.644 1479.48 874.909 1483.48 869.672 C 1484.46 868.385 1490.93 868.564 1492.93 868.471 C 1487.66 868.185 1483.39 868.293 1478.16 868.436 C 1476.24 873.687 1468.19 898.747 1464.63 900.676 C 1465.85 895.395 1468.69 888.274 1470.62 882.977 C 1472.12 880.192 1474.72 872.149 1475.9 868.783 z"/>
<path transform="translate(0,0)" fill="rgb(173,175,174)" d="M 1298.71 1431.9 C 1300.6 1424.97 1320.57 1368.4 1324.04 1363.83 C 1322.68 1372.86 1305.1 1421.19 1301.27 1431.82 L 1298.71 1431.9 z"/>
<path transform="translate(0,0)" fill="rgb(68,68,69)" d="M 1493.92 871.028 L 1494.68 870.045 C 1494.38 874.342 1492.33 880.019 1490.67 884.015 L 1488.89 881.669 C 1490.64 876.725 1490.92 875.176 1493.92 871.028 z"/>
<path transform="translate(0,0)" fill="rgb(252,252,252)" d="M 1495.59 881.037 C 1495.57 887.484 1483.68 919.339 1480.95 927.267 C 1469.62 960.132 1458.12 992.935 1446.43 1025.68 L 1379.01 1216.5 C 1374.85 1228.28 1353.11 1291.29 1348.84 1297.44 L 1346.67 1298.55 C 1379.04 1209.51 1410.83 1120.27 1442.05 1030.82 L 1467.81 958.238 C 1476.53 933.067 1485.57 905.678 1495.59 881.037 z"/>
<path transform="translate(0,0)" fill="rgb(104,103,104)" d="M 1457.99 1348.92 C 1457.9 1352.25 1457.89 1354.03 1457.29 1357.36 C 1455.2 1352.41 1454.97 1339.16 1453.63 1333.38 C 1451.63 1324.79 1445.75 1325.55 1441.24 1320.41 C 1442.37 1317.89 1442.7 1317.74 1442.7 1315.05 C 1425.09 1297.1 1412.98 1292.4 1388.45 1285.07 C 1381.84 1283.1 1378.78 1285.19 1374.71 1283.58 L 1375.03 1281.78 C 1411.99 1284.72 1455.53 1307.43 1457.99 1348.92 z"/>
<path transform="translate(0,0)" fill="rgb(104,103,104)" d="M 1410.06 1345.58 L 1409.04 1340.28 L 1407.94 1339.93 C 1394.93 1355.68 1375.93 1334.9 1381.03 1316.69 C 1388.89 1288.62 1399.72 1297.56 1407.71 1318.7 C 1408.88 1326.58 1411.06 1338.05 1410.06 1345.58 z"/>
<path transform="translate(0,0)" fill="rgb(104,103,104)" d="M 1396.52 1293.55 C 1412.76 1302.53 1430.16 1310.83 1436.01 1330.38 C 1437.46 1335.24 1438.16 1344.66 1436.38 1349.49 C 1435.59 1344.73 1436.81 1343.43 1434.22 1341.52 C 1427.98 1341.41 1422.14 1340.36 1417.5 1344.14 C 1416.54 1347.08 1415.52 1351.49 1414.01 1353.97 C 1413.35 1357.33 1414.21 1356.49 1412.29 1357.94 C 1411.77 1355.39 1412.42 1355.88 1411 1354.94 L 1409.61 1357.8 L 1408.86 1356.65 C 1408.89 1352.48 1408.57 1349.48 1410.06 1345.58 C 1411.06 1338.05 1408.88 1326.58 1407.71 1318.7 L 1409.3 1318.83 C 1405.47 1307.49 1403.28 1303.49 1396.52 1293.55 z"/>
<path transform="translate(0,0)" fill="rgb(68,68,69)" d="M 1407.71 1318.7 L 1409.3 1318.83 C 1413.05 1333.15 1411.84 1345.13 1414.01 1353.97 C 1413.35 1357.33 1414.21 1356.49 1412.29 1357.94 C 1411.77 1355.39 1412.42 1355.88 1411 1354.94 L 1409.61 1357.8 L 1408.86 1356.65 C 1408.89 1352.48 1408.57 1349.48 1410.06 1345.58 C 1411.06 1338.05 1408.88 1326.58 1407.71 1318.7 z"/>
<path transform="translate(0,0)" fill="rgb(252,252,252)" d="M 1461.65 1009.75 C 1462 1013.3 1437.42 1083.26 1434.08 1090.85 C 1432.39 1085.14 1456.49 1017.55 1461.65 1009.75 z"/>
<path transform="translate(0,0)" fill="url(#Gradient2)" d="M 1356.1 750.973 L 1360.42 750.662 C 1360.17 760.941 1361.42 779.798 1366.41 788.99 C 1369.91 800.866 1374.27 806.86 1381.49 816.918 C 1384.54 825.763 1388.01 827.572 1391.15 837.012 L 1389.94 835.943 C 1398.52 849.823 1404.28 845.968 1413.3 856.307 C 1415.85 859.223 1418.14 872.074 1421.47 878.154 C 1375.58 874.026 1345.33 835.907 1348.81 790.322 C 1349.46 781.712 1358.95 757.52 1356.1 750.973 z"/>
<path transform="translate(0,0)" fill="rgb(227,241,224)" d="M 1133.71 975.573 C 1177.79 970.213 1228.84 982.901 1263.33 1011.38 C 1297.26 1039.69 1318.5 1080.36 1322.34 1124.38 C 1334.74 1261.93 1224.55 1391.78 1087.25 1404.15 C 1035.28 1405.49 995.275 1397.8 953.955 1363.13 C 920.626 1334.42 901.221 1291.19 898.005 1247.82 C 888.016 1113.11 999.991 986.02 1133.71 975.573 z"/>
<path transform="translate(0,0)" fill="rgb(66,193,66)" d="M 963.779 1144.01 C 964.893 1140.39 969.144 1132.77 971.061 1129.3 C 1015.46 1048.85 1126.57 997.053 1211.85 1045.69 C 1218.51 1049.08 1223.3 1051.79 1228.16 1057.73 C 1242.59 1064.48 1260.26 1096.67 1265.77 1111.8 C 1267.36 1116.19 1268.77 1120.63 1270.01 1125.13 C 1279.84 1173.49 1269.28 1214.78 1242.98 1256.77 C 1241.17 1259.66 1235.91 1266.75 1233.52 1269.07 C 1230.44 1273.88 1226.61 1277.98 1222.84 1282.27 C 1216.49 1298.91 1201.73 1299.08 1190.42 1320.62 C 1193.06 1318.09 1200.92 1309.95 1203.76 1309.46 C 1201.38 1311.83 1196.31 1317.67 1194.26 1319.25 C 1182.73 1328.14 1168.41 1335.98 1155.73 1343.17 C 1149.11 1346.91 1131.75 1349.67 1128.46 1352.98 L 1129.48 1355.12 C 1117.97 1362.58 1074.14 1362.91 1058.86 1362.08 C 1057.85 1362.03 1056.18 1360.88 1055.35 1360.17 C 1050.02 1355.64 1038.55 1355.48 1031.19 1353.43 C 1020.49 1350.44 996.978 1339.89 991.833 1330.26 C 988.445 1327.5 985.55 1324.51 982.666 1321.24 L 984.483 1319.59 C 977.885 1312.21 966.419 1299.25 969.867 1288.88 C 959.595 1273.82 953.729 1258.11 950.461 1240.32 C 949.54 1234.43 948.751 1228.51 948.094 1222.58 C 947.666 1191.22 951.228 1172.61 963.779 1144.01 z"/>
<path transform="translate(0,0)" fill="rgb(27,136,31)" d="M 951.287 1228.74 C 954.547 1246.87 958.145 1262.91 968.622 1278.41 C 1010.84 1340.83 1085.26 1348.51 1151.77 1322.63 C 1173.31 1309.72 1194.47 1302.81 1212.55 1281 C 1218.19 1276.26 1228.48 1263.25 1233.57 1257.1 C 1233.13 1260.9 1233.05 1260.8 1231.49 1264.06 L 1236.36 1262.17 C 1235.01 1264.58 1233.7 1266.34 1233.52 1269.07 C 1230.44 1273.88 1226.61 1277.98 1222.84 1282.27 C 1216.49 1298.91 1201.73 1299.08 1190.42 1320.62 C 1193.06 1318.09 1200.92 1309.95 1203.76 1309.46 C 1201.38 1311.83 1196.31 1317.67 1194.26 1319.25 C 1182.73 1328.14 1168.41 1335.98 1155.73 1343.17 C 1149.11 1346.91 1131.75 1349.67 1128.46 1352.98 L 1129.48 1355.12 C 1117.97 1362.58 1074.14 1362.91 1058.86 1362.08 C 1057.85 1362.03 1056.18 1360.88 1055.35 1360.17 C 1050.02 1355.64 1038.55 1355.48 1031.19 1353.43 C 1020.49 1350.44 996.978 1339.89 991.833 1330.26 C 988.445 1327.5 985.55 1324.51 982.666 1321.24 L 984.483 1319.59 C 977.885 1312.21 966.419 1299.25 969.867 1288.88 C 959.595 1273.82 953.729 1258.11 950.461 1240.32 C 951.499 1235.53 951.323 1233.74 951.287 1228.74 z"/>
<path transform="translate(0,0)" fill="rgb(181,210,181)" d="M 1222.84 1282.27 C 1216.49 1298.91 1201.73 1299.08 1190.42 1320.62 C 1193.06 1318.09 1200.92 1309.95 1203.76 1309.46 C 1201.38 1311.83 1196.31 1317.67 1194.26 1319.25 C 1182.73 1328.14 1168.41 1335.98 1155.73 1343.17 C 1149.11 1346.91 1131.75 1349.67 1128.46 1352.98 L 1129.48 1355.12 C 1117.97 1362.58 1074.14 1362.91 1058.86 1362.08 C 1057.85 1362.03 1056.18 1360.88 1055.35 1360.17 C 1050.02 1355.64 1038.55 1355.48 1031.19 1353.43 C 1020.49 1350.44 996.978 1339.89 991.833 1330.26 L 993.462 1328.61 C 1004.18 1339.86 1007.76 1338.09 1021.25 1344.22 C 1033.76 1349.21 1040.01 1350.35 1053.29 1352.82 C 1080.86 1357.94 1105.64 1355.09 1132.1 1346.04 C 1141.84 1342.71 1158.07 1337.11 1162.99 1327.38 C 1189.01 1313.45 1201.98 1303.85 1222.84 1282.27 z"/>
<path transform="translate(0,0)" fill="rgb(159,193,157)" d="M 1049.4 1343.12 C 1093.53 1350.81 1122.54 1346.29 1162.99 1327.38 C 1158.07 1337.11 1141.84 1342.71 1132.1 1346.04 C 1105.64 1355.09 1080.86 1357.94 1053.29 1352.82 C 1040.01 1350.35 1033.76 1349.21 1021.25 1344.22 C 1019.79 1342.32 1019.76 1342.48 1019.43 1340.14 C 1023.26 1338.44 1034.11 1343.9 1039.36 1344.08 C 1043.49 1344.22 1045.33 1343.9 1049.4 1343.12 z"/>
<path transform="translate(0,0)" fill="url(#Gradient1)" d="M 969.867 1288.88 C 990.439 1318.53 1014.87 1333.44 1049.4 1343.12 C 1045.33 1343.9 1043.49 1344.22 1039.36 1344.08 C 1034.11 1343.9 1023.26 1338.44 1019.43 1340.14 C 1019.76 1342.48 1019.79 1342.32 1021.25 1344.22 C 1007.76 1338.09 1004.18 1339.86 993.462 1328.61 L 991.833 1330.26 C 988.445 1327.5 985.55 1324.51 982.666 1321.24 L 984.483 1319.59 C 977.885 1312.21 966.419 1299.25 969.867 1288.88 z"/>
<path transform="translate(0,0)" fill="rgb(55,171,56)" d="M 1233.57 1257.1 C 1233.13 1260.9 1233.05 1260.8 1231.49 1264.06 C 1226.28 1268.02 1225.98 1268.55 1224.94 1275.03 C 1215.76 1285.75 1164.26 1322.23 1151.77 1322.63 C 1173.31 1309.72 1194.47 1302.81 1212.55 1281 C 1218.19 1276.26 1228.48 1263.25 1233.57 1257.1 z"/>
<path transform="translate(0,0)" fill="rgb(155,249,155)" d="M 1212.55 1281 C 1212.45 1274.9 1220.7 1267.62 1224.88 1262.54 C 1273.47 1203.48 1286.72 1104.44 1218.53 1054.19 C 1211.62 1049.1 1200.08 1045.53 1193.91 1040.69 L 1194.32 1039.53 C 1197.99 1040.46 1206.15 1044.54 1210.05 1046.2 L 1211.85 1045.69 C 1218.51 1049.08 1223.3 1051.79 1228.16 1057.73 C 1242.59 1064.48 1260.26 1096.67 1265.77 1111.8 C 1267.36 1116.19 1268.77 1120.63 1270.01 1125.13 C 1279.84 1173.49 1269.28 1214.78 1242.98 1256.77 C 1241.17 1259.66 1235.91 1266.75 1233.52 1269.07 C 1233.7 1266.34 1235.01 1264.58 1236.36 1262.17 L 1231.49 1264.06 C 1233.05 1260.8 1233.13 1260.9 1233.57 1257.1 C 1228.48 1263.25 1218.19 1276.26 1212.55 1281 z"/>
<path transform="translate(0,0)" fill="rgb(66,193,66)" d="M 1267.38 1125.53 L 1270.01 1125.13 C 1279.84 1173.49 1269.28 1214.78 1242.98 1256.77 C 1241.17 1259.66 1235.91 1266.75 1233.52 1269.07 C 1233.7 1266.34 1235.01 1264.58 1236.36 1262.17 L 1231.49 1264.06 C 1233.05 1260.8 1233.13 1260.9 1233.57 1257.1 C 1262.04 1215.01 1274.13 1176.08 1267.38 1125.53 z"/>
<path transform="translate(0,0)" fill="rgb(55,171,56)" d="M 1228.16 1057.73 C 1242.59 1064.48 1260.26 1096.67 1265.77 1111.8 C 1267.36 1116.19 1268.77 1120.63 1270.01 1125.13 L 1267.38 1125.53 C 1262.67 1104.29 1253.8 1087.94 1239.9 1071.16 C 1237.1 1067.79 1229.12 1060.63 1228.16 1057.73 z"/>
<path transform="translate(0,0)" fill="rgb(25,108,27)" d="M 963.779 1144.01 C 963.932 1150.47 956.203 1167.03 954.471 1175.34 C 950.653 1193.67 950.273 1210.18 951.287 1228.74 C 951.323 1233.74 951.499 1235.53 950.461 1240.32 C 949.54 1234.43 948.751 1228.51 948.094 1222.58 C 947.666 1191.22 951.228 1172.61 963.779 1144.01 z"/>
<path transform="translate(0,0)" fill="rgb(252,252,252)" d="M 1073.16 1204.42 C 1112.66 1180.68 1149.73 1151.22 1188.95 1127 C 1203.83 1117.81 1214.41 1126.97 1215.46 1143.09 L 1216.49 1143.84 C 1211.06 1158.63 1202.91 1159.57 1191.28 1168.57 C 1178.63 1178.65 1162.46 1188.05 1148.9 1197.44 C 1130.34 1210.28 1110.94 1222.65 1092.16 1235.21 C 1090.04 1236.63 1088.27 1236.67 1085.91 1236.67 C 1084.25 1237.75 1082.07 1238.99 1080.74 1240.34 C 1079.15 1246.29 1061.26 1253.13 1056.11 1249.53 C 1041.99 1239.64 1033.39 1215.91 1024.38 1201.49 C 1018.75 1192.48 1012.23 1179.7 1015.98 1169.93 L 1017.08 1170.04 C 1045.65 1133.93 1059.18 1182.15 1073.16 1204.42 z"/>
<path transform="translate(0,0)" fill="rgb(25,108,27)" d="M 1189.9 1166.84 L 1191.28 1168.57 C 1178.63 1178.65 1162.46 1188.05 1148.9 1197.44 C 1130.34 1210.28 1110.94 1222.65 1092.16 1235.21 C 1090.04 1236.63 1088.27 1236.67 1085.91 1236.67 L 1189.9 1166.84 z"/>
<path transform="translate(0,0)" fill="rgb(16,77,20)" d="M 1080.74 1240.34 C 1079.15 1246.29 1061.26 1253.13 1056.11 1249.53 C 1041.99 1239.64 1033.39 1215.91 1024.38 1201.49 C 1018.75 1192.48 1012.23 1179.7 1015.98 1169.93 L 1017.08 1170.04 C 1014.41 1184.82 1027.59 1199.34 1033.65 1212.67 C 1037.34 1220.8 1043.31 1229.77 1047.8 1237.49 C 1057.62 1252.86 1068.23 1247.6 1080.74 1240.34 z"/>
<path transform="translate(0,0)" fill="rgb(16,77,20)" d="M 1215.46 1143.09 L 1216.49 1143.84 C 1211.06 1158.63 1202.91 1159.57 1191.28 1168.57 L 1189.9 1166.84 C 1201.06 1159.39 1209.88 1155.23 1215.46 1143.09 z"/>
<path transform="translate(0,0)" fill="rgb(181,210,181)" d="M 948.094 1222.58 C 948.751 1228.51 949.54 1234.43 950.461 1240.32 C 953.729 1258.11 959.595 1273.82 969.867 1288.88 C 966.419 1299.25 977.885 1312.21 984.483 1319.59 L 982.666 1321.24 C 965.79 1307.66 943.361 1263.79 945.182 1241.22 C 946.14 1242.8 949.577 1259.09 949.876 1261.54 L 949.979 1262.46 L 950.391 1261.83 C 951.151 1246.76 946.034 1239.22 948.094 1222.58 z"/>
<path transform="translate(0,0)" fill="rgb(39,39,39)" d="M 1204.07 741.201 C 1229.93 738.451 1288.78 753.878 1316.87 756.571 C 1330.85 757.911 1332.77 777.215 1313.03 786.424 C 1292.52 790.42 1228.02 773.438 1203.66 772.076 C 1186.77 771.131 1183.41 751.326 1204.07 741.201 z"/>
<path transform="translate(0,0)" fill="rgb(68,68,69)" d="M 1304.08 765.889 C 1309.73 766.149 1313.62 766.677 1313.8 773.355 C 1312.11 776.654 1311.68 776.531 1308.47 778.311 C 1303.2 778.351 1299.87 778.715 1298.45 773.202 C 1299.58 769.282 1300.84 768.724 1304.08 765.889 z"/>
</svg>